<?xml version="1.0" encoding="UTF-8"?>
<svg version="1.1" xmlns="http://www.w3.org/2000/svg" width="512" height="512">
<path d="M0 0 C16.09649681 14.45305445 24.54765381 34.65667812 26.53051758 55.88891602 C27.03823792 67.65316784 25.35029009 78.61336569 21.36254883 89.71704102 C20.59794392 92.60648719 20.65240447 93.63643496 21.65551758 96.38891602 C22.99127315 97.97208477 22.99127315 97.97208477 24.71020508 99.33422852 C25.32508789 99.8537207 25.9399707 100.37321289 26.57348633 100.90844727 C27.5422168 101.7031543 27.5422168 101.7031543 28.53051758 102.51391602 C29.48764648 103.32022461 29.48764648 103.32022461 30.46411133 104.14282227 C36.15473048 109.23368023 36.15473048 109.23368023 43.40551758 110.45141602 C48.40586071 109.83543172 50.63857696 108.20236092 53.84204102 104.42041016 C55.58111389 102.47226457 57.37276848 100.82891748 59.36645508 99.14672852 C63.67661658 95.42643068 67.67042496 91.45184247 71.65551758 87.38891602 C76.1752707 82.78088647 80.76483985 78.37873805 85.65551758 74.16625977 C89.14523036 71.06505017 92.38768378 67.7205747 95.65551758 64.38891602 C100.1752707 59.78088647 104.76483985 55.37873805 109.65551758 51.16625977 C113.14523036 48.06505017 116.38768378 44.7205747 119.65551758 41.38891602 C124.1853047 36.77065648 128.78511242 32.35694322 133.68676758 28.13500977 C136.99307038 25.20263407 140.06272806 22.04310086 143.15551758 18.88891602 C147.60617363 14.38998464 152.06230412 9.99982238 156.90942383 5.92407227 C158.89736458 4.17628543 160.69934708 2.29986028 162.53051758 0.38891602 C175.66845232 -12.85125946 194.03583408 -20.74337058 212.65551758 -21.61108398 C213.30907227 -21.66264648 213.96262695 -21.71420898 214.63598633 -21.76733398 C234.58686135 -22.66568483 251.55673385 -13.93134251 266.15942383 -1.09155273 C268.4857406 1.2104683 268.70576877 2.64930854 269.34301758 5.95141602 C269.2982288 9.05303888 268.82439171 10.18641017 266.81176758 12.59985352 C264.17251613 14.98019105 261.45295808 17.19683562 258.65551758 19.38891602 C256.88340608 20.84569591 255.11257323 22.3040326 253.34301758 23.76391602 C251.97209961 24.87379883 251.97209961 24.87379883 250.57348633 26.00610352 C247.40134351 28.5964745 244.27508464 31.23574468 241.15551758 33.88891602 C236.30611852 38.01015784 231.40390387 42.05883415 226.46801758 46.07641602 C223.33752092 48.65037994 220.24379297 51.26460688 217.15551758 53.88891602 C212.30592377 58.00993235 207.40390952 62.05882955 202.46801758 66.07641602 C199.33752092 68.65037994 196.24379297 71.26460688 193.15551758 73.88891602 C188.30592377 78.00993235 183.40390952 82.05882955 178.46801758 86.07641602 C175.33752092 88.65037994 172.24379297 91.26460688 169.15551758 93.88891602 C164.30592377 98.00993235 159.40390952 102.05882955 154.46801758 106.07641602 C151.33751846 108.65038196 148.24388348 111.26471068 145.15551758 113.88891602 C140.38640548 117.93904201 135.57639326 121.93243714 130.72583008 125.88500977 C126.90332455 129.0023457 123.09012306 132.13083375 119.28051758 135.26391602 C118.55622559 135.85954346 117.83193359 136.4551709 117.08569336 137.06884766 C111.90822707 141.33547413 106.77057501 145.64637515 101.67749023 150.01342773 C99.39733098 151.96023477 97.15562783 153.72217585 94.65551758 155.38891602 C95.89406269 159.10455135 97.34568936 159.98350192 100.40551758 162.38891602 C101.39938477 163.18168945 102.39325195 163.97446289 103.41723633 164.79125977 C103.94623535 165.21262207 104.47523438 165.63398438 105.02026367 166.06811523 C107.79676163 168.31070316 110.50383359 170.63415532 113.21801758 172.95141602 C116.98578976 176.15699866 120.77801339 179.31582112 124.65551758 182.38891602 C129.10805458 185.91775004 133.44237737 189.57120931 137.76879883 193.25219727 C141.20123367 196.16896114 144.66144573 199.04585027 148.15551758 201.88891602 C152.76005338 205.636794 157.29570949 209.45875046 161.81958008 213.30297852 C165.23611298 216.20136424 168.68056595 219.06046702 172.15551758 221.88891602 C176.76005338 225.636794 181.29570949 229.45875046 185.81958008 233.30297852 C189.23611298 236.20136424 192.68056595 239.06046702 196.15551758 241.88891602 C200.76005338 245.636794 205.29570949 249.45875046 209.81958008 253.30297852 C213.23611298 256.20136424 216.68056595 259.06046702 220.15551758 261.88891602 C224.76005338 265.636794 229.29570949 269.45875046 233.81958008 273.30297852 C237.23611298 276.20136424 240.68056595 279.06046702 244.15551758 281.88891602 C249.3651746 286.12986668 254.49378231 290.46113209 259.61254883 294.81079102 C261.17001761 296.13034095 262.73150028 297.44737604 264.34936523 298.69213867 C267.65156929 301.26552641 268.57781856 301.98747109 269.40551758 306.26391602 C268.93649578 311.38486832 266.45020362 314.11763494 262.65551758 317.38891602 C248.22707785 328.75499302 230.40108359 336.33824126 211.65551758 334.38891602 C190.93169146 331.73148702 175.52398158 324.53584604 160.35668945 310.0090332 C158.5176654 308.25763199 156.65908226 306.52891029 154.79614258 304.80297852 C147.78003852 298.29195273 140.85334208 291.71551353 134.16748047 284.86401367 C131.46914144 282.11795263 128.69788017 279.52751108 125.78051758 277.01391602 C120.81018228 272.71448149 116.25447974 268.03863916 111.65551758 263.34985352 C108.4155422 260.07190968 105.14854689 256.89756041 101.65551758 253.88891602 C96.72089627 249.6385879 92.21298369 244.99633264 87.65551758 240.34985352 C84.4155422 237.07190968 81.14854689 233.89756041 77.65551758 230.88891602 C72.72089627 226.6385879 68.21298369 221.99633264 63.65551758 217.34985352 C59.65112883 213.29853833 55.54329382 209.44906038 51.22192383 205.73657227 C50.3430336 204.98041983 49.47533907 204.2087375 48.65551758 203.38891602 C45.17582593 202.05057307 42.3342065 201.74976157 38.65551758 202.38891602 C34.31382835 204.92464592 30.72784303 208.54212851 27.12573242 212.01147461 C25.07162689 213.93596206 22.87962264 215.66636514 20.65551758 217.38891602 C21.30123826 220.90002222 22.17090335 224.3127429 23.1159668 227.75415039 C28.88841417 249.25586386 27.12831306 271.46086212 16.78051758 291.32641602 C13.8305052 296.37169359 10.38286408 300.89896298 6.65551758 305.38891602 C5.98456055 306.27836914 5.98456055 306.27836914 5.30004883 307.18579102 C-6.83367867 322.69988248 -27.56354361 331.20565228 -46.53198242 334.13891602 C-62.64582269 335.19556128 -77.57341253 333.15414357 -92.34448242 326.38891602 C-93.26487305 325.9699707 -94.18526367 325.55102539 -95.13354492 325.11938477 C-113.65050287 315.86090579 -130.03896715 297.71201408 -136.91088867 278.12329102 C-144.21053479 255.87114399 -143.86618266 232.14415776 -133.53198242 210.95141602 C-130.41364537 204.89121044 -126.82721148 199.53814196 -122.34448242 194.38891602 C-121.67739258 193.50913086 -121.67739258 193.50913086 -120.99682617 192.61157227 C-108.91168969 177.07353965 -88.10311276 168.56872999 -69.15698242 165.63891602 C-53.99790153 164.64487792 -40.01519517 166.3731219 -25.98120117 172.30297852 C-22.73951193 173.6457979 -22.73951193 173.6457979 -19.34448242 174.38891602 C-16.99826755 172.58505733 -14.99586141 170.83130939 -12.90698242 168.76391602 C-12.34688477 168.22895508 -11.78678711 167.69399414 -11.2097168 167.14282227 C-7.87208869 163.94150336 -4.60539465 160.66811373 -1.34448242 157.38891602 C-2.93482595 153.44560809 -5.66676101 150.80368695 -8.65698242 147.88891602 C-9.13071289 147.41583008 -9.60444336 146.94274414 -10.0925293 146.45532227 C-11.48783018 145.07720019 -12.91591354 143.7325216 -14.34448242 142.38891602 C-15.16303711 141.57422852 -15.9815918 140.75954102 -16.82495117 139.92016602 C-19.28084445 138.03562087 -19.28084445 138.03562087 -22.21557617 138.98266602 C-23.24811523 139.44672852 -24.2806543 139.91079102 -25.34448242 140.38891602 C-48.94714247 148.82423095 -72.18481847 150.27009317 -95.34448242 139.38891602 C-116.78621585 128.76538532 -129.83931361 111.82414758 -138.73120117 89.98266602 C-145.3513434 69.72735364 -142.77144252 45.957831 -133.59448242 27.01391602 C-130.23643375 20.4833765 -126.23998878 14.87412965 -121.34448242 9.38891602 C-120.68061523 8.57165039 -120.01674805 7.75438477 -119.33276367 6.91235352 C-105.90506529 -9.12146008 -86.6552143 -18.25657999 -66.15698242 -21.36108398 C-41.36978929 -22.9864737 -19.04268322 -16.36037806 0 0 Z M-109.34448242 18.38891602 C-122.03722457 35.22795393 -129.26842904 52.8170326 -126.44824219 74.26416016 C-123.6867381 92.13881537 -114.27057643 108.22706285 -99.68725586 119.03442383 C-84.09286672 130.02869818 -66.29768096 134.43974452 -47.53198242 131.20141602 C-39.41167689 129.67340153 -31.79224876 127.12905778 -24.71948242 122.77172852 C-21.24986138 120.75158732 -19.30585413 120.71749708 -15.34448242 121.38891602 C-12.31454805 123.35837336 -9.87924815 125.82713679 -7.34448242 128.38891602 C-6.44342773 129.27708008 -5.54237305 130.16524414 -4.61401367 131.08032227 C-2.17354707 133.50013611 0.24769129 135.93668309 2.65551758 138.38891602 C4.98675322 135.51090869 7.21764584 132.60810243 9.34301758 129.57641602 C12.84957815 124.84391139 17.1532972 121.15077126 21.65551758 117.38891602 C17.60199889 113.20778655 13.28931832 109.53248829 8.76489258 105.87524414 C4.75860951 102.59509988 4.75860951 102.59509988 3.65551758 100.38891602 C3.19862466 94.60160571 4.43144776 90.49719031 6.59301758 85.26391602 C12.97633631 69.41669781 12.82523041 50.73178052 6.21411133 34.94750977 C-2.08633301 17.09481393 -15.46742931 4.23630684 -33.84448242 -2.92358398 C-60.70531013 -11.94170049 -91.12987151 -3.55819713 -109.34448242 18.38891602 Z M173.46679688 11.51538086 C171.70456285 13.338185 169.87602558 14.97080512 167.94458008 16.61157227 C163.64095163 20.3435247 159.64256619 24.32399536 155.65551758 28.38891602 C151.13576446 32.99694556 146.54619531 37.39909399 141.65551758 41.61157227 C138.1658048 44.71278187 134.92335138 48.05725734 131.65551758 51.38891602 C127.13576446 55.99694556 122.54619531 60.39909399 117.65551758 64.61157227 C114.1658048 67.71278187 110.92335138 71.05725734 107.65551758 74.38891602 C103.13576446 78.99694556 98.54619531 83.39909399 93.65551758 87.61157227 C90.1658048 90.71278187 86.92335138 94.05725734 83.65551758 97.38891602 C79.03945739 102.09513363 74.37327355 106.60769039 69.31958008 110.84594727 C67.42466847 112.48279934 67.42466847 112.48279934 65.65551758 115.38891602 C66.28458008 115.78981445 66.91364258 116.19071289 67.56176758 116.60375977 C76.69349734 122.6686586 83.24809152 129.28856464 87.65551758 139.38891602 C90.80097472 138.80013231 92.56695579 137.8931813 94.94067383 135.76391602 C95.5479834 135.22686035 96.15529297 134.68980469 96.78100586 134.13647461 C97.42021973 133.55978027 98.05943359 132.98308594 98.71801758 132.38891602 C100.06983154 131.19241546 101.42270209 129.99710763 102.77661133 128.80297852 C103.43902832 128.21677734 104.10144531 127.63057617 104.78393555 127.02661133 C107.23647083 124.88056298 109.74829534 122.81505332 112.28051758 120.76391602 C116.28290669 117.52162454 120.23147393 114.22498473 124.15551758 110.88891602 C129.0050048 106.76777654 133.90712881 102.7189999 138.84301758 98.70141602 C141.97351424 96.12745209 145.06724219 93.51322515 148.15551758 90.88891602 C153.00511139 86.76789968 157.90712564 82.71900248 162.84301758 78.70141602 C165.97351424 76.12745209 169.06724219 73.51322515 172.15551758 70.88891602 C177.00511139 66.76789968 181.90712564 62.71900248 186.84301758 58.70141602 C189.97351424 56.12745209 193.06724219 53.51322515 196.15551758 50.88891602 C201.00511139 46.76789968 205.90712564 42.71900248 210.84301758 38.70141602 C213.97351517 36.12745133 217.06720805 33.51318607 220.15551758 30.88891602 C225.01503866 26.7604291 229.92142186 22.69621076 234.86645508 18.67016602 C239.82660093 14.61312795 244.73912548 10.49877957 249.65551758 6.38891602 C240.93103596 -2.78022284 229.11614197 -6.50406317 216.53051758 -6.92358398 C200.49780196 -5.63062305 184.66898832 -0.58403529 173.46679688 11.51538086 Z M21.86645508 136.46313477 C16.81200707 143.59662912 13.47982985 151.51330165 14.65551758 160.38891602 C16.21406513 169.03815288 20.00176531 175.8493357 27.05395508 181.21313477 C35.74338458 186.73426459 43.47421776 188.59486431 53.65551758 186.38891602 C63.79162837 182.53028293 69.88382805 177.11913834 74.65551758 167.38891602 C77.32294415 160.24748759 77.38994098 152.82852219 74.60864258 145.70922852 C70.06395682 136.25516 64.45271465 130.28541 54.43676758 126.56469727 C42.63171678 123.36371234 29.91867812 127.1274788 21.86645508 136.46313477 Z M87.65551758 173.38891602 C87.31520508 174.09016602 86.97489258 174.79141602 86.62426758 175.51391602 C81.55235248 185.44192004 75.40899888 191.99337317 65.65551758 197.38891602 C69.62765077 202.3540825 73.97102257 206.58889764 78.69848633 210.83837891 C83.49673474 215.1783594 88.05966513 219.72970276 92.58325195 224.35400391 C95.48571091 227.30068672 98.44300399 230.11062992 101.57739258 232.81079102 C106.53430096 237.09186551 111.07211032 241.75505159 115.65551758 246.42797852 C118.89549295 249.70592235 122.16248826 252.88027163 125.65551758 255.88891602 C130.59013889 260.13924414 135.09805147 264.78149939 139.65551758 269.42797852 C142.89549295 272.70592235 146.16248826 275.88027163 149.65551758 278.88891602 C154.59013889 283.13924414 159.09805147 287.78149939 163.65551758 292.42797852 C178.86837713 307.81911377 194.52840561 317.92705215 216.53051758 319.70141602 C227.14504159 319.32704484 237.77532349 316.23754626 246.65551758 310.38891602 C248.45943743 308.32212867 248.45943743 308.32212867 249.65551758 306.38891602 C241.98818438 299.69422697 234.30788927 293.03905688 226.39770508 286.63110352 C223.28551609 284.08637919 220.21825261 281.49273377 217.15551758 278.88891602 C213.18652606 275.51603 209.19534578 272.17714827 205.15551758 268.88891602 C200.55098177 265.14103804 196.01532566 261.31908157 191.49145508 257.47485352 C188.07492218 254.57646779 184.6304692 251.71736501 181.15551758 248.88891602 C176.55098177 245.14103804 172.01532566 241.31908157 167.49145508 237.47485352 C164.07492218 234.57646779 160.6304692 231.71736501 157.15551758 228.88891602 C152.55098177 225.14103804 148.01532566 221.31908157 143.49145508 217.47485352 C140.07492218 214.57646779 136.6304692 211.71736501 133.15551758 208.88891602 C128.55098177 205.14103804 124.01532566 201.31908157 119.49145508 197.47485352 C115.20575002 193.83911321 110.86592517 190.27484922 106.49926758 186.73657227 C104.36836866 184.97740983 102.27077876 183.198214 100.18676758 181.38500977 C99.59959961 180.87711914 99.01243164 180.36922852 98.4074707 179.84594727 C97.26014738 178.85083294 96.11798748 177.84972654 94.98168945 176.84204102 C91.79954901 173.96990217 91.79954901 173.96990217 87.65551758 173.38891602 Z M0.08325195 176.75 C-0.52196289 177.37205322 -1.12717773 177.99410645 -1.75073242 178.63500977 C-2.74266602 179.64337891 -2.74266602 179.64337891 -3.75463867 180.67211914 C-4.44428711 181.38303711 -5.13393555 182.09395508 -5.84448242 182.82641602 C-7.20682546 184.22313593 -8.57130863 185.61777257 -9.93823242 187.01000977 C-10.54344727 187.63319092 -11.14866211 188.25637207 -11.7722168 188.8984375 C-14.12670401 191.1304475 -15.24251241 191.38033561 -18.54760742 191.65844727 C-22.89059046 191.35014909 -25.30850308 190.18313033 -29.09448242 188.07641602 C-45.40594124 179.36795906 -61.6634626 178.82070274 -79.34448242 183.38891602 C-97.6768034 189.14598726 -111.35069394 201.68993565 -120.34448242 218.38891602 C-128.41676257 235.68665919 -129.05821841 253.6278999 -123.21948242 271.63891602 C-115.88441488 290.44568804 -100.82700452 305.90968506 -82.53198242 314.26391602 C-64.73300165 321.08607178 -46.866849 320.81651775 -29.15698242 313.76391602 C-12.68043612 306.21371534 0.26252779 293.04350717 6.94067383 276.13500977 C12.84639612 258.88352709 12.49106862 240.93425517 5.46801758 224.13891602 C3.78913288 220.03280653 2.8646792 216.87033349 3.65551758 212.38891602 C7.2515487 208.40664452 11.35715762 205.009007 15.46801758 201.57641602 C16.36423828 200.82328125 16.36423828 200.82328125 17.27856445 200.05493164 C18.73580605 198.8308487 20.19541623 197.6095864 21.65551758 196.38891602 C18.28749233 193.00021619 18.28749233 193.00021619 14.84692383 189.68579102 C10.81509467 185.85700361 7.81048487 181.85967055 4.91723633 177.11157227 C4.50086914 176.5430957 4.08450195 175.97461914 3.65551758 175.38891602 C1.56094327 175.17074741 1.56094327 175.17074741 0.08325195 176.75 Z " fill="#000000" transform="translate(141.344482421875,99.611083984375)"/>
<path d="M0 0 C0.79156494 0.00563965 1.58312988 0.0112793 2.39868164 0.01708984 C8.40238997 0.14156373 13.60154509 0.82930574 19.125 3.3125 C20.01316406 3.70308594 20.90132813 4.09367187 21.81640625 4.49609375 C34.89710616 10.91818981 44.01902613 22.27491364 49.5 35.625 C53.77083566 48.64088012 52.5976066 62.12337423 47 74.5625 C40.8897074 85.63740533 31.26504862 93.98904175 19.3125 98.1875 C6.46537174 101.88076615 -7.49456451 101.33852885 -19.5625 95.1875 C-33.03069944 86.9240443 -43.55332266 74.32240292 -47.484375 58.92578125 C-49.66146216 44.36106812 -47.22724549 31.05274924 -38.84765625 18.8125 C-29.09221418 6.44916747 -15.64103594 -0.1172617 0 0 Z M-26.875 28.3125 C-32.67054859 37.39130662 -34.43368164 46.55068671 -32.296875 57.19140625 C-29.92282447 64.77757681 -25.51309633 69.84285294 -19.875 75.3125 C-19.35808594 75.8384375 -18.84117188 76.364375 -18.30859375 76.90625 C-12.24236429 82.57497724 -4.98916111 84.55672753 3.125 84.8125 C13.60956854 84.43805112 20.35108962 81.02598786 27.921875 73.82421875 C34.48950914 66.33665004 36.53252444 58.26709308 36.390625 48.53515625 C35.52814699 38.07126866 30.48038667 31.44812995 23.125 24.3125 C22.60808594 23.7865625 22.09117188 23.260625 21.55859375 22.71875 C15.49236429 17.05002276 8.23916111 15.06827247 0.125 14.8125 C-11.42435452 15.22497695 -19.25857206 19.62923197 -26.875 28.3125 Z " fill="#000000" transform="translate(81.875,299.6875)"/>
<path d="M0 0 C1.18517212 0.00737183 1.18517212 0.00737183 2.39428711 0.01489258 C8.37967974 0.13485882 13.61543198 0.84269364 19.125 3.3125 C19.86621094 3.64121094 20.60742188 3.96992187 21.37109375 4.30859375 C33.32011231 10.29345747 41.16611188 19.72633519 46.21875 31.9609375 C50.5608071 45.34894689 48.9648356 59.78688192 42.65234375 72.2109375 C35.25635347 84.69494947 24.45298264 94.57121457 10.23828125 98.4765625 C-3.55120108 101.64103817 -17.55954665 99.27866247 -29.6875 92.125 C-39.99797476 85.05153476 -48.133418 74.16745774 -50.625 61.68359375 C-52.29784764 45.81767945 -49.85420756 32.22789747 -39.875 19.3125 C-29.41238911 6.76841898 -16.27946721 -0.12033029 0 0 Z M-24.875 26.3125 C-25.50535156 26.9209375 -26.13570312 27.529375 -26.78515625 28.15625 C-33.1432144 34.7437922 -36.00833313 42.18131218 -36.375 51.3125 C-35.93895473 61.53974364 -32.38878746 68.80778084 -25.3203125 76.14453125 C-17.32532171 83.23274193 -9.93782396 84.69437577 0.515625 84.5859375 C9.65167332 83.89381263 15.83196683 79.69711577 22.125 73.3125 C22.75535156 72.7040625 23.38570312 72.095625 24.03515625 71.46875 C30.3932144 64.8812078 33.25833313 57.44368782 33.625 48.3125 C33.18895473 38.08525636 29.63878746 30.81721916 22.5703125 23.48046875 C14.57532171 16.39225807 7.18782396 14.93062423 -3.265625 15.0390625 C-12.40167332 15.73118737 -18.58196683 19.92788423 -24.875 26.3125 Z " fill="#000000" transform="translate(84.875,112.6875)"/>
<path d="M0 0 C5.54022607 3.32830907 9.87628934 7.69135845 11.57421875 14.05859375 C12.35568753 20.90236577 11.67800352 26.40644847 7.57421875 32.05859375 C3.96922439 35.84672954 0.0362954 38.79455489 -5.23046875 39.359375 C-15.93545254 39.40023372 -15.93545254 39.40023372 -20.42578125 36.05859375 C-25.82030346 30.66407154 -28.55795271 27.05223482 -28.67578125 19.24609375 C-28.58879767 13.21523216 -27.93499385 9.56780635 -23.55078125 5.18359375 C-16.82989632 -0.94427192 -8.96680009 -3.47986928 0 0 Z M-13.42578125 16.05859375 C-13.75911458 19.05859375 -13.75911458 19.05859375 -13.42578125 22.05859375 C-12.76578125 22.71859375 -12.10578125 23.37859375 -11.42578125 24.05859375 C-7.82899059 23.73532822 -7.82899059 23.73532822 -4.42578125 23.05859375 C-3.27494985 18.98780167 -3.27494985 18.98780167 -4.55078125 15.18359375 C-8.00752753 13.10954598 -10.59111304 13.22392554 -13.42578125 16.05859375 Z " fill="#000000" transform="translate(195.42578125,236.94140625)"/>
<path d="M0 0 C0.94165512 -0.00145523 1.88331024 -0.00291046 2.85350037 -0.00440979 C4.84141132 -0.0027517 6.82933523 0.00879956 8.81713867 0.02954102 C11.86367125 0.05852314 14.9084667 0.05014274 17.95507812 0.03710938 C19.88672722 0.04334602 21.81837082 0.05173639 23.75 0.0625 C25.11881065 0.05809654 25.11881065 0.05809654 26.51527405 0.05360413 C27.36302902 0.0662883 28.210784 0.07897247 29.08422852 0.09204102 C29.82939224 0.097444 30.57455597 0.10284698 31.34230042 0.1084137 C33.85750854 0.60431937 34.73113727 1.51223032 36.30859375 3.49609375 C37.18359375 5.87109375 37.18359375 5.87109375 37.30859375 8.49609375 C36.16700185 10.77927755 35.11846692 12.68622058 33.30859375 14.49609375 C31.97967336 14.60942111 30.64490809 14.65558179 29.3112793 14.6730957 C28.46337326 14.68593094 27.61546722 14.69876617 26.74186707 14.71199036 C25.35757256 14.72307076 25.35757256 14.72307076 23.9453125 14.734375 C23.00178421 14.74244675 22.05825592 14.75051849 21.08613586 14.75883484 C19.08454232 14.77269367 17.08292495 14.78340774 15.08129883 14.79125977 C12.01923782 14.80846372 8.95825865 14.85233247 5.89648438 14.89648438 C3.95443505 14.90661158 2.01237651 14.9151276 0.0703125 14.921875 C-1.30487297 14.94813713 -1.30487297 14.94813713 -2.70783997 14.97492981 C-9.05031543 14.95328746 -9.05031543 14.95328746 -12.27026367 12.65698242 C-14.21907683 9.69375527 -14.27112309 7.97439479 -13.69140625 4.49609375 C-10.23203214 -0.73710568 -5.69239509 -0.07023295 0 0 Z " fill="#000000" transform="translate(408.69140625,248.50390625)"/>
<path d="M0 0 C0.87100342 -0.01268417 1.74200684 -0.02536835 2.6394043 -0.03843689 C4.0457312 -0.03403343 4.0457312 -0.03403343 5.48046875 -0.02954102 C6.92836792 -0.03740379 6.92836792 -0.03740379 8.40551758 -0.04542542 C10.44644203 -0.05184919 12.4874035 -0.05050404 14.52832031 -0.04199219 C17.65626699 -0.03347911 20.78238995 -0.06224392 23.91015625 -0.09399414 C25.89192653 -0.0956061 27.87370006 -0.09502872 29.85546875 -0.09204102 C30.79302002 -0.10327499 31.73057129 -0.11450897 32.6965332 -0.12608337 C39.14573461 -0.05662367 39.14573461 -0.05662367 41.7578125 2.24755859 C42.99666273 5.18284939 43.06255024 7.24740084 42.66796875 10.40405273 C41.7578125 12.56054688 41.7578125 12.56054688 39.66796875 14.40405273 C36.4042545 15.01605013 33.16719888 14.93982848 29.85546875 14.90014648 C28.89020264 14.90160172 27.92493652 14.90305695 26.93041992 14.90455627 C24.88945498 14.90289617 22.84847766 14.89132242 20.80761719 14.87060547 C17.6797988 14.8416622 14.55367576 14.84999191 11.42578125 14.86303711 C9.44400216 14.8567995 7.46222843 14.84840838 5.48046875 14.83764648 C4.54291748 14.84058212 3.60536621 14.84351776 2.6394043 14.84654236 C1.33289917 14.8275161 1.33289917 14.8275161 0 14.80810547 C-0.76594482 14.80270248 -1.53188965 14.7972995 -2.32104492 14.79173279 C-4.85890251 14.30248194 -5.75356484 13.41256828 -7.33203125 11.40405273 C-7.73046875 9.46655273 -7.73046875 9.46655273 -7.70703125 7.40405273 C-7.71476562 6.72342773 -7.7225 6.04280273 -7.73046875 5.34155273 C-6.84612941 1.04123596 -4.06234779 0.02865585 0 0 Z " fill="#000000" transform="translate(271.33203125,248.595947265625)"/>
<path d="M0 0 C0.84790604 -0.01283524 1.69581207 -0.02567047 2.56941223 -0.03889465 C3.95370674 -0.04997505 3.95370674 -0.04997505 5.3659668 -0.0612793 C6.30949509 -0.06935104 7.25302338 -0.07742279 8.22514343 -0.08573914 C10.22673698 -0.09959797 12.22835434 -0.11031203 14.22998047 -0.11816406 C17.29204148 -0.13536801 20.35302065 -0.17923677 23.41479492 -0.22338867 C25.35684425 -0.23351588 27.29890278 -0.24203189 29.2409668 -0.2487793 C30.61615227 -0.27504143 30.61615227 -0.27504143 32.01911926 -0.30183411 C38.377952 -0.28013594 38.377952 -0.28013594 41.59545898 2.07421875 C43.21923047 4.50057957 43.41087789 5.45620686 42.94018555 8.30200195 C42.00268555 12.17700195 42.00268555 12.17700195 39.00268555 14.17700195 C37.02966309 14.43769836 37.02966309 14.43769836 34.76245117 14.45166016 C33.48597717 14.46595818 33.48597717 14.46595818 32.18371582 14.48054504 C31.26803833 14.47963364 30.35236084 14.47872223 29.40893555 14.4777832 C28.46586548 14.48206833 27.52279541 14.48635345 26.55114746 14.49076843 C24.55729984 14.49651127 22.56343126 14.49701234 20.56958008 14.49267578 C17.51436777 14.48951404 14.46012197 14.51298172 11.4050293 14.53833008 C9.4688326 14.54060284 7.5326333 14.54130667 5.59643555 14.5402832 C4.22291931 14.55409782 4.22291931 14.55409782 2.82165527 14.56819153 C1.97067261 14.56196274 1.11968994 14.55573395 0.24291992 14.54931641 C-0.87934998 14.55026054 -0.87934998 14.55026054 -2.02429199 14.55122375 C-4.55194451 14.07180565 -5.41668432 13.16881659 -6.99731445 11.17700195 C-7.87231445 8.80200195 -7.87231445 8.80200195 -7.99731445 6.17700195 C-4.94125909 0.06489122 -4.94125909 0.06489122 0 0 Z " fill="#000000" transform="translate(336.997314453125,248.822998046875)"/>
<path d="M0 0 C0.96526611 -0.0038269 1.93053223 -0.00765381 2.92504883 -0.01159668 C4.96599368 -0.01431882 7.00697324 -0.00693656 9.04785156 0.00976562 C12.17591971 0.03117076 15.30169098 0.00997396 18.4296875 -0.015625 C20.41146341 -0.01298178 22.3932379 -0.00785692 24.375 0 C25.7813269 -0.01214539 25.7813269 -0.01214539 27.21606445 -0.02453613 C33.66388214 0.06880245 33.66388214 0.06880245 36.27734375 2.37695312 C37.51699158 5.31114101 37.58198082 7.37540345 37.1875 10.53125 C36.27734375 12.68554688 36.27734375 12.68554688 34.1875 14.53125 C30.9251189 15.15446098 27.68765525 15.09110891 24.375 15.0625 C23.40973389 15.0663269 22.44446777 15.07015381 21.44995117 15.07409668 C19.40900632 15.07681882 17.36802676 15.06943656 15.32714844 15.05273438 C12.19908029 15.03132924 9.07330902 15.05252604 5.9453125 15.078125 C3.96353659 15.07548178 1.9817621 15.07035692 0 15.0625 C-1.4063269 15.07464539 -1.4063269 15.07464539 -2.84106445 15.08703613 C-9.28888214 14.99369755 -9.28888214 14.99369755 -11.90234375 12.68554688 C-13.14199158 9.75135899 -13.20698082 7.68709655 -12.8125 4.53125 C-10.43522848 -1.09563946 -5.27683956 -0.04557209 0 0 Z " fill="#000000" transform="translate(473.8125,248.46875)"/>
</svg>
